<?xml version="1.0" encoding="utf-8"?>
<!-- Generator: Adobe Illustrator 19.0.0, SVG Export Plug-In . SVG Version: 6.00 Build 0)  -->
<svg version="1.1" id="background" xmlns="http://www.w3.org/2000/svg" xmlns:xlink="http://www.w3.org/1999/xlink" x="0px" y="0px"
	 viewBox="0 0 2000 2000" style="enable-background:new 0 0 2000 2000;" xml:space="preserve">
<style type="text/css">
	.st0{fill:#CCCCCC;stroke:#000000;stroke-width:0.125;stroke-miterlimit:10;}
	.st1{fill:#231F20;}
	.st2{fill:#FFFFFF;}
	.st3{fill:#010101;stroke:#010101;stroke-width:0.125;stroke-miterlimit:10;}
	.st4{fill:#231F20;stroke:#010101;stroke-width:0.125;stroke-miterlimit:10;}
</style>
<rect id="XMLID_1_" x="851.9" y="859.7" class="st0" width="264.7" height="259.9"/>
<g id="XMLID_3_">
	<polygon id="XMLID_21_" class="st1" points="988.7,945 858.7,1036.3 860.7,1114.8 1121.2,1110.3 1119.2,1033.9 	"/>
	<path id="XMLID_20_" class="st2" d="M910.2,999.5c0,0,0,13.5,0,20.6s-0.8,16.1-8.3,25.5c-7.5,9.4-18.4,22.1-18.4,22.1l214.9,4.9
		c0,0-22.5-27.4-25.1-31.9s-4.9-12-4.9-18c0-6,0.4-21.4,0.4-21.4l-7.9-6.4v22.5l-141.8-0.8l-1.1-21.8L910.2,999.5z"/>
	<path id="XMLID_19_" class="st3" d="M1059.1,1023.5l-139.5-1.5c0,0,0-3.4,0,7.1c0,10.5-8.3,18.8-15.8,28.5l171,2.3
		c0,0-9-10.9-10.9-15.8C1062.1,1039.3,1058.4,1026.5,1059.1,1023.5z"/>
	<polygon id="XMLID_18_" class="st2" points="910.2,1002.9 908.2,882.8 1061.7,882.8 1061,997.8 1068.8,1002.9 1068.8,869.8 
		908.2,869.8 	"/>
	<polyline id="XMLID_17_" class="st2" points="910.2,1007.3 908.2,882.8 914.7,882.8 918.3,997.8 	"/>
	<rect id="XMLID_16_" x="895.7" y="869.8" class="st2" width="184" height="24"/>
	<path id="XMLID_15_" class="st2" d="M1044.9,1010.4l-9.4-12.8c0,0-6.4-8.6-6-15.4s0-9,0-9l-4.1-3v11.3h-72.8v-11.3l-4.9,3.4v9.8
		c0,0,1.5,5.3-3.4,11.6s-11.3,13.9-11.3,13.9L1044.9,1010.4z"/>
	<path id="XMLID_14_" class="st4" d="M944.4,1002.9h88.5c0,0-8.3-10.1-8.3-18.4H953c0,0,0.4,3-0.4,5.6s-3.4,7.1-4.9,9
		C946.2,1001,944.4,1002.9,944.4,1002.9z"/>
	<polygon id="XMLID_13_" class="st2" points="947.7,975 947.7,920.3 938.4,920.3 938.4,905.8 1040.2,905.8 1040.2,915.8 1040.2,919 
		1029.7,919 1029.6,975 1025.4,971.5 1025.4,919 951.4,920 952.6,971.8 	"/>
	<polygon id="XMLID_12_" class="st2" points="1009,960.3 1009,933.8 1012.4,933.8 1012.4,927 964.2,927 964.2,933.8 968.4,933.8 
		968.5,960.3 970.7,959 970.2,933.8 1006.7,933.8 1006.9,958.1 	"/>
	<path id="XMLID_11_" class="st2" d="M961.2,977.8h55.2c0,0-5-6.5-6-7.9c-1-1.4-1.6-4.4-1.5-6.1s0.1-4.5,0.1-4.5l-2.1-1.8v6.5
		l-36-0.2l-0.2-5.6l-2.1,1.4c0,0,0.1,4.2,0.1,5.5s-0.4,3.9-1.8,5.8C965.5,972.7,961.2,977.8,961.2,977.8z"/>
	<path id="XMLID_10_" class="st4" d="M966.9,974h43.5c0,0-3.8-3.8-3.8-6l0-2.2h-35.9c0,0,0,3.6-0.6,4.5
		C969.5,971.2,966.9,974,966.9,974z"/>
	<path id="XMLID_9_" class="st2" d="M999,952c0,0-0.1,2.9,0,3.9s0.4,1.6,0.9,2.2c0.5,0.7,3.2,3.8,3.2,3.8v0.4h-28.8
		c0,0,2.1-3,2.7-3.8s0.8-1.4,1-2.8s0.2-2.7,0.2-2.7l1-0.7v2.4L998,955l-0.1-3.6L999,952z"/>
	<path id="XMLID_8_" class="st4" d="M977.3,960.3h22.9c0,0-1.3-1.2-1.6-1.8s-0.7-1.6-0.7-2.1s0-0.5,0-0.5h-18.7c0,0,0.1,0.3,0.1,1
		c0,0.7-0.5,1.5-0.8,2C978.2,959.4,977.3,960.3,977.3,960.3z"/>
	<polyline id="XMLID_7_" class="st2" points="999,952.3 999,952 999,938.7 1000.8,938.7 1000.8,935.8 976.2,935.8 976.2,938.2 
		978.2,938.2 978.2,953 979.2,952.4 979,938.2 997.8,938.4 997.9,951.5 	"/>
	<path id="XMLID_6_" class="st2" d="M983.2,949.6c0,0,0,0.8,0,1s0.2,0.4-0.2,0.9s-1.8,2-1.8,2h14.5c0,0-1-1.4-1.2-1.7
		s-0.4-0.6-0.5-1.1s0-1.9,0-1.9l-0.5-0.4v1.5h-9.7l-0.1-1l-0.6,0.5L983.2,949.6z"/>
	<path id="XMLID_5_" class="st4" d="M982.9,952.7h11.5c0,0-0.8-0.8-0.8-1.2s0-0.5,0-0.5l-0.1-0.5h-9.8c0,0,0.4,0.8,0.1,1.1
		C983.5,952,982.9,952.7,982.9,952.7z"/>
	<polygon id="XMLID_4_" class="st2" points="994.1,949.2 994.1,941.9 994.8,941.9 994.8,940.4 982.2,940.4 982.2,941.5 983.2,941.5 
		983.2,949.5 983.8,949 983.8,941.5 993.5,941.7 993.6,948.7 	"/>
</g>
</svg>
